<mxfile host="Electron" modified="2024-01-17T07:34:29.647Z" agent="Mozilla/5.0 (Windows NT 10.0; Win64; x64) AppleWebKit/537.36 (KHTML, like Gecko) draw.io/22.1.2 Chrome/114.0.5735.289 Electron/25.9.4 Safari/537.36" etag="CczEk7b2etXuQbYOAsj0" version="22.1.2" type="device">
  <diagram name="第 1 页" id="f4ysflZwD8AMnO3xdN1d">
    <mxGraphModel dx="2053" dy="1322" grid="1" gridSize="10" guides="1" tooltips="1" connect="1" arrows="1" fold="1" page="1" pageScale="1" pageWidth="491" pageHeight="413" math="0" shadow="0">
      <root>
        <mxCell id="0" />
        <mxCell id="1" parent="0" />
        <mxCell id="K98Bxn6t_sUbTKtrdi1Z-125" style="edgeStyle=orthogonalEdgeStyle;rounded=0;orthogonalLoop=1;jettySize=auto;html=1;exitX=0;exitY=0.25;exitDx=0;exitDy=0;entryX=1;entryY=0.5;entryDx=0;entryDy=0;" edge="1" parent="1" source="K98Bxn6t_sUbTKtrdi1Z-1">
          <mxGeometry relative="1" as="geometry">
            <mxPoint x="223.5" y="182" as="targetPoint" />
          </mxGeometry>
        </mxCell>
        <mxCell id="K98Bxn6t_sUbTKtrdi1Z-128" style="edgeStyle=orthogonalEdgeStyle;rounded=0;orthogonalLoop=1;jettySize=auto;html=1;exitX=1;exitY=0.75;exitDx=0;exitDy=0;entryX=0;entryY=0.75;entryDx=0;entryDy=0;" edge="1" parent="1" source="K98Bxn6t_sUbTKtrdi1Z-1" target="K98Bxn6t_sUbTKtrdi1Z-2">
          <mxGeometry relative="1" as="geometry" />
        </mxCell>
        <mxCell id="K98Bxn6t_sUbTKtrdi1Z-1" value="A" style="rounded=0;whiteSpace=wrap;html=1;fillColor=#d5e8d4;strokeColor=#82b366;fontSize=18;fontStyle=1" vertex="1" parent="1">
          <mxGeometry x="263.5" y="170" width="50" height="50" as="geometry" />
        </mxCell>
        <mxCell id="K98Bxn6t_sUbTKtrdi1Z-127" style="edgeStyle=orthogonalEdgeStyle;rounded=0;orthogonalLoop=1;jettySize=auto;html=1;exitX=0;exitY=0.25;exitDx=0;exitDy=0;entryX=1;entryY=0.25;entryDx=0;entryDy=0;" edge="1" parent="1" source="K98Bxn6t_sUbTKtrdi1Z-2" target="K98Bxn6t_sUbTKtrdi1Z-1">
          <mxGeometry relative="1" as="geometry" />
        </mxCell>
        <mxCell id="K98Bxn6t_sUbTKtrdi1Z-160" style="edgeStyle=orthogonalEdgeStyle;rounded=0;orthogonalLoop=1;jettySize=auto;html=1;exitX=1;exitY=0.75;exitDx=0;exitDy=0;entryX=0;entryY=0.75;entryDx=0;entryDy=0;" edge="1" parent="1" source="K98Bxn6t_sUbTKtrdi1Z-2" target="K98Bxn6t_sUbTKtrdi1Z-143">
          <mxGeometry relative="1" as="geometry" />
        </mxCell>
        <mxCell id="K98Bxn6t_sUbTKtrdi1Z-2" value="B" style="rounded=0;whiteSpace=wrap;html=1;fillColor=#d5e8d4;strokeColor=#82b366;fontStyle=1;fontSize=18;" vertex="1" parent="1">
          <mxGeometry x="353.5" y="170" width="50" height="50" as="geometry" />
        </mxCell>
        <mxCell id="K98Bxn6t_sUbTKtrdi1Z-104" style="edgeStyle=orthogonalEdgeStyle;rounded=0;orthogonalLoop=1;jettySize=auto;html=1;exitX=1;exitY=0.75;exitDx=0;exitDy=0;entryX=0;entryY=0.75;entryDx=0;entryDy=0;curved=1;" edge="1" parent="1" source="K98Bxn6t_sUbTKtrdi1Z-10" target="K98Bxn6t_sUbTKtrdi1Z-1">
          <mxGeometry relative="1" as="geometry" />
        </mxCell>
        <mxCell id="K98Bxn6t_sUbTKtrdi1Z-196" style="edgeStyle=orthogonalEdgeStyle;rounded=0;orthogonalLoop=1;jettySize=auto;html=1;exitX=0;exitY=0.25;exitDx=0;exitDy=0;entryX=1;entryY=0.25;entryDx=0;entryDy=0;" edge="1" parent="1" source="K98Bxn6t_sUbTKtrdi1Z-10" target="K98Bxn6t_sUbTKtrdi1Z-195">
          <mxGeometry relative="1" as="geometry" />
        </mxCell>
        <mxCell id="K98Bxn6t_sUbTKtrdi1Z-10" value="C" style="rounded=0;whiteSpace=wrap;html=1;fillColor=#f8cecc;strokeColor=#b85450;fontStyle=1;fontSize=18;" vertex="1" parent="1">
          <mxGeometry x="173.5" y="270" width="50" height="50" as="geometry" />
        </mxCell>
        <mxCell id="K98Bxn6t_sUbTKtrdi1Z-12" style="edgeStyle=orthogonalEdgeStyle;rounded=0;orthogonalLoop=1;jettySize=auto;html=1;exitX=0.5;exitY=0;exitDx=0;exitDy=0;entryX=0.5;entryY=1;entryDx=0;entryDy=0;" edge="1" parent="1" source="K98Bxn6t_sUbTKtrdi1Z-11" target="K98Bxn6t_sUbTKtrdi1Z-1">
          <mxGeometry relative="1" as="geometry" />
        </mxCell>
        <mxCell id="K98Bxn6t_sUbTKtrdi1Z-11" value="&lt;b&gt;first&lt;/b&gt;" style="text;html=1;strokeColor=none;fillColor=none;align=center;verticalAlign=middle;whiteSpace=wrap;rounded=0;fontSize=21;" vertex="1" parent="1">
          <mxGeometry x="268.5" y="250" width="40" height="20" as="geometry" />
        </mxCell>
        <mxCell id="K98Bxn6t_sUbTKtrdi1Z-15" style="edgeStyle=orthogonalEdgeStyle;rounded=0;orthogonalLoop=1;jettySize=auto;html=1;exitX=0.5;exitY=0;exitDx=0;exitDy=0;entryX=0.5;entryY=1;entryDx=0;entryDy=0;" edge="1" parent="1" source="K98Bxn6t_sUbTKtrdi1Z-14" target="K98Bxn6t_sUbTKtrdi1Z-2">
          <mxGeometry relative="1" as="geometry" />
        </mxCell>
        <mxCell id="K98Bxn6t_sUbTKtrdi1Z-14" value="&lt;b&gt;last&lt;/b&gt;" style="text;html=1;strokeColor=none;fillColor=none;align=center;verticalAlign=middle;whiteSpace=wrap;rounded=0;fontSize=21;" vertex="1" parent="1">
          <mxGeometry x="358.5" y="250" width="40" height="20" as="geometry" />
        </mxCell>
        <mxCell id="K98Bxn6t_sUbTKtrdi1Z-176" style="edgeStyle=orthogonalEdgeStyle;rounded=0;orthogonalLoop=1;jettySize=auto;html=1;exitX=1;exitY=0.75;exitDx=0;exitDy=0;entryX=0;entryY=0.75;entryDx=0;entryDy=0;curved=1;" edge="1" parent="1" source="K98Bxn6t_sUbTKtrdi1Z-62" target="K98Bxn6t_sUbTKtrdi1Z-165">
          <mxGeometry relative="1" as="geometry" />
        </mxCell>
        <mxCell id="K98Bxn6t_sUbTKtrdi1Z-198" style="edgeStyle=orthogonalEdgeStyle;rounded=0;orthogonalLoop=1;jettySize=auto;html=1;exitX=0;exitY=0.25;exitDx=0;exitDy=0;entryX=1;entryY=0.25;entryDx=0;entryDy=0;" edge="1" parent="1" source="K98Bxn6t_sUbTKtrdi1Z-62" target="K98Bxn6t_sUbTKtrdi1Z-197">
          <mxGeometry relative="1" as="geometry" />
        </mxCell>
        <mxCell id="K98Bxn6t_sUbTKtrdi1Z-62" value="C" style="rounded=0;whiteSpace=wrap;html=1;fillColor=#f8cecc;strokeColor=#b85450;fontStyle=1;fontSize=18;" vertex="1" parent="1">
          <mxGeometry x="173.5" y="450" width="50" height="50" as="geometry" />
        </mxCell>
        <mxCell id="K98Bxn6t_sUbTKtrdi1Z-69" style="edgeStyle=orthogonalEdgeStyle;rounded=0;orthogonalLoop=1;jettySize=auto;html=1;exitX=0.5;exitY=0;exitDx=0;exitDy=0;entryX=0.5;entryY=1;entryDx=0;entryDy=0;" edge="1" parent="1" source="K98Bxn6t_sUbTKtrdi1Z-64" target="K98Bxn6t_sUbTKtrdi1Z-62">
          <mxGeometry relative="1" as="geometry" />
        </mxCell>
        <mxCell id="K98Bxn6t_sUbTKtrdi1Z-64" value="&lt;b&gt;first&lt;/b&gt;" style="text;html=1;strokeColor=none;fillColor=none;align=center;verticalAlign=middle;whiteSpace=wrap;rounded=0;fontSize=21;" vertex="1" parent="1">
          <mxGeometry x="178.5" y="530" width="40" height="20" as="geometry" />
        </mxCell>
        <mxCell id="K98Bxn6t_sUbTKtrdi1Z-68" style="edgeStyle=orthogonalEdgeStyle;rounded=0;orthogonalLoop=1;jettySize=auto;html=1;exitX=0.5;exitY=1;exitDx=0;exitDy=0;" edge="1" parent="1">
          <mxGeometry relative="1" as="geometry">
            <mxPoint x="198.5" y="560" as="sourcePoint" />
            <mxPoint x="198.5" y="560" as="targetPoint" />
          </mxGeometry>
        </mxCell>
        <mxCell id="K98Bxn6t_sUbTKtrdi1Z-142" value="null" style="rounded=0;whiteSpace=wrap;html=1;fillColor=#f5f5f5;strokeColor=#666666;fontSize=18;fontStyle=1;dashed=1;fontColor=#333333;" vertex="1" parent="1">
          <mxGeometry x="173.5" y="170" width="50" height="50" as="geometry" />
        </mxCell>
        <mxCell id="K98Bxn6t_sUbTKtrdi1Z-143" value="null" style="rounded=0;whiteSpace=wrap;html=1;fillColor=#f5f5f5;strokeColor=#666666;fontSize=18;fontStyle=1;dashed=1;fontColor=#333333;" vertex="1" parent="1">
          <mxGeometry x="443.5" y="170" width="50" height="50" as="geometry" />
        </mxCell>
        <mxCell id="K98Bxn6t_sUbTKtrdi1Z-146" style="edgeStyle=orthogonalEdgeStyle;rounded=0;orthogonalLoop=1;jettySize=auto;html=1;exitX=0;exitY=0.25;exitDx=0;exitDy=0;entryX=1;entryY=0.5;entryDx=0;entryDy=0;" edge="1" parent="1" source="K98Bxn6t_sUbTKtrdi1Z-148">
          <mxGeometry relative="1" as="geometry">
            <mxPoint x="223.5" y="52" as="targetPoint" />
          </mxGeometry>
        </mxCell>
        <mxCell id="K98Bxn6t_sUbTKtrdi1Z-147" style="edgeStyle=orthogonalEdgeStyle;rounded=0;orthogonalLoop=1;jettySize=auto;html=1;exitX=1;exitY=0.75;exitDx=0;exitDy=0;entryX=0;entryY=0.75;entryDx=0;entryDy=0;" edge="1" parent="1" source="K98Bxn6t_sUbTKtrdi1Z-148" target="K98Bxn6t_sUbTKtrdi1Z-151">
          <mxGeometry relative="1" as="geometry" />
        </mxCell>
        <mxCell id="K98Bxn6t_sUbTKtrdi1Z-148" value="A" style="rounded=0;whiteSpace=wrap;html=1;fillColor=#d5e8d4;strokeColor=#82b366;fontSize=18;fontStyle=1" vertex="1" parent="1">
          <mxGeometry x="263.5" y="40" width="50" height="50" as="geometry" />
        </mxCell>
        <mxCell id="K98Bxn6t_sUbTKtrdi1Z-149" style="edgeStyle=orthogonalEdgeStyle;rounded=0;orthogonalLoop=1;jettySize=auto;html=1;exitX=0;exitY=0.25;exitDx=0;exitDy=0;entryX=1;entryY=0.25;entryDx=0;entryDy=0;" edge="1" parent="1" source="K98Bxn6t_sUbTKtrdi1Z-151" target="K98Bxn6t_sUbTKtrdi1Z-148">
          <mxGeometry relative="1" as="geometry" />
        </mxCell>
        <mxCell id="K98Bxn6t_sUbTKtrdi1Z-161" style="edgeStyle=orthogonalEdgeStyle;rounded=0;orthogonalLoop=1;jettySize=auto;html=1;exitX=1;exitY=0.75;exitDx=0;exitDy=0;entryX=0;entryY=0.75;entryDx=0;entryDy=0;" edge="1" parent="1" source="K98Bxn6t_sUbTKtrdi1Z-151" target="K98Bxn6t_sUbTKtrdi1Z-158">
          <mxGeometry relative="1" as="geometry" />
        </mxCell>
        <mxCell id="K98Bxn6t_sUbTKtrdi1Z-151" value="B" style="rounded=0;whiteSpace=wrap;html=1;fillColor=#d5e8d4;strokeColor=#82b366;fontStyle=1;fontSize=18;" vertex="1" parent="1">
          <mxGeometry x="353.5" y="40" width="50" height="50" as="geometry" />
        </mxCell>
        <mxCell id="K98Bxn6t_sUbTKtrdi1Z-152" style="edgeStyle=orthogonalEdgeStyle;rounded=0;orthogonalLoop=1;jettySize=auto;html=1;exitX=0.5;exitY=0;exitDx=0;exitDy=0;entryX=0.5;entryY=1;entryDx=0;entryDy=0;" edge="1" parent="1" source="K98Bxn6t_sUbTKtrdi1Z-153" target="K98Bxn6t_sUbTKtrdi1Z-148">
          <mxGeometry relative="1" as="geometry" />
        </mxCell>
        <mxCell id="K98Bxn6t_sUbTKtrdi1Z-153" value="&lt;b&gt;first&lt;/b&gt;" style="text;html=1;strokeColor=none;fillColor=none;align=center;verticalAlign=middle;whiteSpace=wrap;rounded=0;fontSize=21;" vertex="1" parent="1">
          <mxGeometry x="268.5" y="120" width="40" height="20" as="geometry" />
        </mxCell>
        <mxCell id="K98Bxn6t_sUbTKtrdi1Z-154" style="edgeStyle=orthogonalEdgeStyle;rounded=0;orthogonalLoop=1;jettySize=auto;html=1;exitX=0.5;exitY=0;exitDx=0;exitDy=0;entryX=0.5;entryY=1;entryDx=0;entryDy=0;" edge="1" parent="1" source="K98Bxn6t_sUbTKtrdi1Z-155" target="K98Bxn6t_sUbTKtrdi1Z-151">
          <mxGeometry relative="1" as="geometry" />
        </mxCell>
        <mxCell id="K98Bxn6t_sUbTKtrdi1Z-155" value="&lt;b&gt;last&lt;/b&gt;" style="text;html=1;strokeColor=none;fillColor=none;align=center;verticalAlign=middle;whiteSpace=wrap;rounded=0;fontSize=21;" vertex="1" parent="1">
          <mxGeometry x="358.5" y="120" width="40" height="20" as="geometry" />
        </mxCell>
        <mxCell id="K98Bxn6t_sUbTKtrdi1Z-156" value="null" style="rounded=0;whiteSpace=wrap;html=1;fillColor=#f5f5f5;strokeColor=#666666;fontSize=18;fontStyle=1;dashed=1;fontColor=#333333;" vertex="1" parent="1">
          <mxGeometry x="173.5" y="40" width="50" height="50" as="geometry" />
        </mxCell>
        <mxCell id="K98Bxn6t_sUbTKtrdi1Z-158" value="null" style="rounded=0;whiteSpace=wrap;html=1;fillColor=#f5f5f5;strokeColor=#666666;fontSize=18;fontStyle=1;dashed=1;fontColor=#333333;" vertex="1" parent="1">
          <mxGeometry x="443.5" y="40" width="50" height="50" as="geometry" />
        </mxCell>
        <mxCell id="K98Bxn6t_sUbTKtrdi1Z-163" style="edgeStyle=orthogonalEdgeStyle;rounded=0;orthogonalLoop=1;jettySize=auto;html=1;exitX=0;exitY=0.25;exitDx=0;exitDy=0;entryX=1;entryY=0.5;entryDx=0;entryDy=0;" edge="1" parent="1" source="K98Bxn6t_sUbTKtrdi1Z-165">
          <mxGeometry relative="1" as="geometry">
            <mxPoint x="223.5" y="362" as="targetPoint" />
          </mxGeometry>
        </mxCell>
        <mxCell id="K98Bxn6t_sUbTKtrdi1Z-164" style="edgeStyle=orthogonalEdgeStyle;rounded=0;orthogonalLoop=1;jettySize=auto;html=1;exitX=1;exitY=0.75;exitDx=0;exitDy=0;entryX=0;entryY=0.75;entryDx=0;entryDy=0;" edge="1" parent="1" source="K98Bxn6t_sUbTKtrdi1Z-165" target="K98Bxn6t_sUbTKtrdi1Z-168">
          <mxGeometry relative="1" as="geometry" />
        </mxCell>
        <mxCell id="K98Bxn6t_sUbTKtrdi1Z-165" value="A" style="rounded=0;whiteSpace=wrap;html=1;fillColor=#d5e8d4;strokeColor=#82b366;fontSize=18;fontStyle=1" vertex="1" parent="1">
          <mxGeometry x="263.5" y="350" width="50" height="50" as="geometry" />
        </mxCell>
        <mxCell id="K98Bxn6t_sUbTKtrdi1Z-166" style="edgeStyle=orthogonalEdgeStyle;rounded=0;orthogonalLoop=1;jettySize=auto;html=1;exitX=0;exitY=0.25;exitDx=0;exitDy=0;entryX=1;entryY=0.25;entryDx=0;entryDy=0;" edge="1" parent="1" source="K98Bxn6t_sUbTKtrdi1Z-168" target="K98Bxn6t_sUbTKtrdi1Z-165">
          <mxGeometry relative="1" as="geometry" />
        </mxCell>
        <mxCell id="K98Bxn6t_sUbTKtrdi1Z-167" style="edgeStyle=orthogonalEdgeStyle;rounded=0;orthogonalLoop=1;jettySize=auto;html=1;exitX=1;exitY=0.75;exitDx=0;exitDy=0;entryX=0;entryY=0.75;entryDx=0;entryDy=0;" edge="1" parent="1" source="K98Bxn6t_sUbTKtrdi1Z-168" target="K98Bxn6t_sUbTKtrdi1Z-175">
          <mxGeometry relative="1" as="geometry" />
        </mxCell>
        <mxCell id="K98Bxn6t_sUbTKtrdi1Z-168" value="B" style="rounded=0;whiteSpace=wrap;html=1;fillColor=#d5e8d4;strokeColor=#82b366;fontStyle=1;fontSize=18;" vertex="1" parent="1">
          <mxGeometry x="353.5" y="350" width="50" height="50" as="geometry" />
        </mxCell>
        <mxCell id="K98Bxn6t_sUbTKtrdi1Z-171" style="edgeStyle=orthogonalEdgeStyle;rounded=0;orthogonalLoop=1;jettySize=auto;html=1;exitX=0.5;exitY=0;exitDx=0;exitDy=0;entryX=0.5;entryY=1;entryDx=0;entryDy=0;" edge="1" parent="1" source="K98Bxn6t_sUbTKtrdi1Z-172" target="K98Bxn6t_sUbTKtrdi1Z-168">
          <mxGeometry relative="1" as="geometry" />
        </mxCell>
        <mxCell id="K98Bxn6t_sUbTKtrdi1Z-172" value="&lt;b&gt;last&lt;/b&gt;" style="text;html=1;strokeColor=none;fillColor=none;align=center;verticalAlign=middle;whiteSpace=wrap;rounded=0;fontSize=21;" vertex="1" parent="1">
          <mxGeometry x="358.5" y="430" width="40" height="20" as="geometry" />
        </mxCell>
        <mxCell id="K98Bxn6t_sUbTKtrdi1Z-173" value="null" style="rounded=0;whiteSpace=wrap;html=1;fillColor=#f5f5f5;strokeColor=#666666;fontSize=18;fontStyle=1;dashed=1;fontColor=#333333;" vertex="1" parent="1">
          <mxGeometry x="173.5" y="350" width="50" height="50" as="geometry" />
        </mxCell>
        <mxCell id="K98Bxn6t_sUbTKtrdi1Z-175" value="null" style="rounded=0;whiteSpace=wrap;html=1;fillColor=#f5f5f5;strokeColor=#666666;fontSize=18;fontStyle=1;dashed=1;fontColor=#333333;" vertex="1" parent="1">
          <mxGeometry x="443.5" y="350" width="50" height="50" as="geometry" />
        </mxCell>
        <mxCell id="K98Bxn6t_sUbTKtrdi1Z-195" value="null" style="rounded=0;whiteSpace=wrap;html=1;fillColor=#f5f5f5;strokeColor=#666666;fontSize=18;fontStyle=1;dashed=1;fontColor=#333333;" vertex="1" parent="1">
          <mxGeometry x="80" y="270" width="50" height="50" as="geometry" />
        </mxCell>
        <mxCell id="K98Bxn6t_sUbTKtrdi1Z-197" value="null" style="rounded=0;whiteSpace=wrap;html=1;fillColor=#f5f5f5;strokeColor=#666666;fontSize=18;fontStyle=1;dashed=1;fontColor=#333333;" vertex="1" parent="1">
          <mxGeometry x="80" y="450" width="50" height="50" as="geometry" />
        </mxCell>
        <mxCell id="K98Bxn6t_sUbTKtrdi1Z-199" style="edgeStyle=orthogonalEdgeStyle;rounded=0;orthogonalLoop=1;jettySize=auto;html=1;exitX=1;exitY=0.75;exitDx=0;exitDy=0;entryX=0;entryY=0.75;entryDx=0;entryDy=0;curved=1;" edge="1" parent="1" source="K98Bxn6t_sUbTKtrdi1Z-201" target="K98Bxn6t_sUbTKtrdi1Z-207">
          <mxGeometry relative="1" as="geometry" />
        </mxCell>
        <mxCell id="K98Bxn6t_sUbTKtrdi1Z-200" style="edgeStyle=orthogonalEdgeStyle;rounded=0;orthogonalLoop=1;jettySize=auto;html=1;exitX=0;exitY=0.25;exitDx=0;exitDy=0;entryX=1;entryY=0.25;entryDx=0;entryDy=0;" edge="1" parent="1" source="K98Bxn6t_sUbTKtrdi1Z-201" target="K98Bxn6t_sUbTKtrdi1Z-216">
          <mxGeometry relative="1" as="geometry" />
        </mxCell>
        <mxCell id="K98Bxn6t_sUbTKtrdi1Z-201" value="C" style="rounded=0;whiteSpace=wrap;html=1;fillColor=#f8cecc;strokeColor=#b85450;fontStyle=1;fontSize=18;" vertex="1" parent="1">
          <mxGeometry x="174.38" y="627" width="50" height="50" as="geometry" />
        </mxCell>
        <mxCell id="K98Bxn6t_sUbTKtrdi1Z-202" style="edgeStyle=orthogonalEdgeStyle;rounded=0;orthogonalLoop=1;jettySize=auto;html=1;exitX=0.5;exitY=0;exitDx=0;exitDy=0;entryX=0.5;entryY=1;entryDx=0;entryDy=0;" edge="1" parent="1" source="K98Bxn6t_sUbTKtrdi1Z-203" target="K98Bxn6t_sUbTKtrdi1Z-201">
          <mxGeometry relative="1" as="geometry" />
        </mxCell>
        <mxCell id="K98Bxn6t_sUbTKtrdi1Z-203" value="&lt;b&gt;first&lt;/b&gt;" style="text;html=1;strokeColor=none;fillColor=none;align=center;verticalAlign=middle;whiteSpace=wrap;rounded=0;fontSize=21;" vertex="1" parent="1">
          <mxGeometry x="179.38" y="707" width="40" height="20" as="geometry" />
        </mxCell>
        <mxCell id="K98Bxn6t_sUbTKtrdi1Z-204" style="edgeStyle=orthogonalEdgeStyle;rounded=0;orthogonalLoop=1;jettySize=auto;html=1;exitX=0.5;exitY=1;exitDx=0;exitDy=0;" edge="1" parent="1">
          <mxGeometry relative="1" as="geometry">
            <mxPoint x="199.38" y="737" as="sourcePoint" />
            <mxPoint x="199.38" y="737" as="targetPoint" />
          </mxGeometry>
        </mxCell>
        <mxCell id="K98Bxn6t_sUbTKtrdi1Z-206" style="edgeStyle=orthogonalEdgeStyle;rounded=0;orthogonalLoop=1;jettySize=auto;html=1;exitX=1;exitY=0.75;exitDx=0;exitDy=0;entryX=0;entryY=0.75;entryDx=0;entryDy=0;" edge="1" parent="1" source="K98Bxn6t_sUbTKtrdi1Z-207" target="K98Bxn6t_sUbTKtrdi1Z-210">
          <mxGeometry relative="1" as="geometry" />
        </mxCell>
        <mxCell id="K98Bxn6t_sUbTKtrdi1Z-217" style="edgeStyle=orthogonalEdgeStyle;rounded=0;orthogonalLoop=1;jettySize=auto;html=1;exitX=0;exitY=0.25;exitDx=0;exitDy=0;entryX=1;entryY=0.25;entryDx=0;entryDy=0;" edge="1" parent="1" source="K98Bxn6t_sUbTKtrdi1Z-207" target="K98Bxn6t_sUbTKtrdi1Z-201">
          <mxGeometry relative="1" as="geometry" />
        </mxCell>
        <mxCell id="K98Bxn6t_sUbTKtrdi1Z-207" value="A" style="rounded=0;whiteSpace=wrap;html=1;fillColor=#d5e8d4;strokeColor=#82b366;fontSize=18;fontStyle=1" vertex="1" parent="1">
          <mxGeometry x="266.13" y="627" width="50" height="50" as="geometry" />
        </mxCell>
        <mxCell id="K98Bxn6t_sUbTKtrdi1Z-208" style="edgeStyle=orthogonalEdgeStyle;rounded=0;orthogonalLoop=1;jettySize=auto;html=1;exitX=0;exitY=0.25;exitDx=0;exitDy=0;entryX=1;entryY=0.25;entryDx=0;entryDy=0;" edge="1" parent="1" source="K98Bxn6t_sUbTKtrdi1Z-210" target="K98Bxn6t_sUbTKtrdi1Z-207">
          <mxGeometry relative="1" as="geometry" />
        </mxCell>
        <mxCell id="K98Bxn6t_sUbTKtrdi1Z-209" style="edgeStyle=orthogonalEdgeStyle;rounded=0;orthogonalLoop=1;jettySize=auto;html=1;exitX=1;exitY=0.75;exitDx=0;exitDy=0;entryX=0;entryY=0.75;entryDx=0;entryDy=0;" edge="1" parent="1" source="K98Bxn6t_sUbTKtrdi1Z-210" target="K98Bxn6t_sUbTKtrdi1Z-215">
          <mxGeometry relative="1" as="geometry" />
        </mxCell>
        <mxCell id="K98Bxn6t_sUbTKtrdi1Z-210" value="B" style="rounded=0;whiteSpace=wrap;html=1;fillColor=#d5e8d4;strokeColor=#82b366;fontStyle=1;fontSize=18;" vertex="1" parent="1">
          <mxGeometry x="356.13" y="627" width="50" height="50" as="geometry" />
        </mxCell>
        <mxCell id="K98Bxn6t_sUbTKtrdi1Z-211" style="edgeStyle=orthogonalEdgeStyle;rounded=0;orthogonalLoop=1;jettySize=auto;html=1;exitX=0.5;exitY=0;exitDx=0;exitDy=0;entryX=0.5;entryY=1;entryDx=0;entryDy=0;" edge="1" parent="1" source="K98Bxn6t_sUbTKtrdi1Z-212" target="K98Bxn6t_sUbTKtrdi1Z-210">
          <mxGeometry relative="1" as="geometry" />
        </mxCell>
        <mxCell id="K98Bxn6t_sUbTKtrdi1Z-212" value="&lt;b&gt;last&lt;/b&gt;" style="text;html=1;strokeColor=none;fillColor=none;align=center;verticalAlign=middle;whiteSpace=wrap;rounded=0;fontSize=21;" vertex="1" parent="1">
          <mxGeometry x="361.13" y="707" width="40" height="20" as="geometry" />
        </mxCell>
        <mxCell id="K98Bxn6t_sUbTKtrdi1Z-215" value="null" style="rounded=0;whiteSpace=wrap;html=1;fillColor=#f5f5f5;strokeColor=#666666;fontSize=18;fontStyle=1;dashed=1;fontColor=#333333;" vertex="1" parent="1">
          <mxGeometry x="446.13" y="627" width="50" height="50" as="geometry" />
        </mxCell>
        <mxCell id="K98Bxn6t_sUbTKtrdi1Z-216" value="null" style="rounded=0;whiteSpace=wrap;html=1;fillColor=#f5f5f5;strokeColor=#666666;fontSize=18;fontStyle=1;dashed=1;fontColor=#333333;" vertex="1" parent="1">
          <mxGeometry x="80.88" y="627" width="50" height="50" as="geometry" />
        </mxCell>
        <mxCell id="K98Bxn6t_sUbTKtrdi1Z-224" style="edgeStyle=orthogonalEdgeStyle;rounded=0;orthogonalLoop=1;jettySize=auto;html=1;exitX=0.5;exitY=0;exitDx=0;exitDy=0;entryX=0.5;entryY=1;entryDx=0;entryDy=0;" edge="1" parent="1" source="K98Bxn6t_sUbTKtrdi1Z-225">
          <mxGeometry relative="1" as="geometry">
            <mxPoint x="706.38" y="90" as="targetPoint" />
          </mxGeometry>
        </mxCell>
        <mxCell id="K98Bxn6t_sUbTKtrdi1Z-225" value="&lt;b&gt;first&lt;/b&gt;" style="text;html=1;strokeColor=none;fillColor=none;align=center;verticalAlign=middle;whiteSpace=wrap;rounded=0;fontSize=21;" vertex="1" parent="1">
          <mxGeometry x="686.38" y="120" width="40" height="20" as="geometry" />
        </mxCell>
        <mxCell id="K98Bxn6t_sUbTKtrdi1Z-226" style="edgeStyle=orthogonalEdgeStyle;rounded=0;orthogonalLoop=1;jettySize=auto;html=1;exitX=0.5;exitY=0;exitDx=0;exitDy=0;entryX=0.5;entryY=1;entryDx=0;entryDy=0;" edge="1" parent="1" source="K98Bxn6t_sUbTKtrdi1Z-227">
          <mxGeometry relative="1" as="geometry">
            <mxPoint x="796.38" y="90" as="targetPoint" />
          </mxGeometry>
        </mxCell>
        <mxCell id="K98Bxn6t_sUbTKtrdi1Z-227" value="&lt;b&gt;last&lt;/b&gt;" style="text;html=1;strokeColor=none;fillColor=none;align=center;verticalAlign=middle;whiteSpace=wrap;rounded=0;fontSize=21;" vertex="1" parent="1">
          <mxGeometry x="776.38" y="120" width="40" height="20" as="geometry" />
        </mxCell>
        <mxCell id="K98Bxn6t_sUbTKtrdi1Z-228" value="null" style="rounded=0;whiteSpace=wrap;html=1;fillColor=#f5f5f5;strokeColor=#666666;fontSize=18;fontStyle=1;dashed=1;fontColor=#333333;" vertex="1" parent="1">
          <mxGeometry x="681.38" y="40" width="50" height="50" as="geometry" />
        </mxCell>
        <mxCell id="K98Bxn6t_sUbTKtrdi1Z-230" value="null" style="rounded=0;whiteSpace=wrap;html=1;fillColor=#f5f5f5;strokeColor=#666666;fontSize=18;fontStyle=1;dashed=1;fontColor=#333333;" vertex="1" parent="1">
          <mxGeometry x="771.38" y="40" width="50" height="50" as="geometry" />
        </mxCell>
        <mxCell id="K98Bxn6t_sUbTKtrdi1Z-231" style="edgeStyle=orthogonalEdgeStyle;rounded=0;orthogonalLoop=1;jettySize=auto;html=1;exitX=0.5;exitY=0;exitDx=0;exitDy=0;entryX=0.5;entryY=1;entryDx=0;entryDy=0;" edge="1" parent="1" source="K98Bxn6t_sUbTKtrdi1Z-232">
          <mxGeometry relative="1" as="geometry">
            <mxPoint x="783.75" y="220" as="targetPoint" />
          </mxGeometry>
        </mxCell>
        <mxCell id="K98Bxn6t_sUbTKtrdi1Z-232" value="&lt;b&gt;first&lt;/b&gt;" style="text;html=1;strokeColor=none;fillColor=none;align=center;verticalAlign=middle;whiteSpace=wrap;rounded=0;fontSize=21;" vertex="1" parent="1">
          <mxGeometry x="763.75" y="250" width="40" height="20" as="geometry" />
        </mxCell>
        <mxCell id="K98Bxn6t_sUbTKtrdi1Z-233" style="edgeStyle=orthogonalEdgeStyle;rounded=0;orthogonalLoop=1;jettySize=auto;html=1;exitX=0.5;exitY=0;exitDx=0;exitDy=0;entryX=0.5;entryY=1;entryDx=0;entryDy=0;" edge="1" parent="1" source="K98Bxn6t_sUbTKtrdi1Z-234">
          <mxGeometry relative="1" as="geometry">
            <mxPoint x="873.75" y="220" as="targetPoint" />
          </mxGeometry>
        </mxCell>
        <mxCell id="K98Bxn6t_sUbTKtrdi1Z-234" value="&lt;b&gt;last&lt;/b&gt;" style="text;html=1;strokeColor=none;fillColor=none;align=center;verticalAlign=middle;whiteSpace=wrap;rounded=0;fontSize=21;" vertex="1" parent="1">
          <mxGeometry x="853.75" y="250" width="40" height="20" as="geometry" />
        </mxCell>
        <mxCell id="K98Bxn6t_sUbTKtrdi1Z-235" value="null" style="rounded=0;whiteSpace=wrap;html=1;fillColor=#f5f5f5;strokeColor=#666666;fontSize=18;fontStyle=1;dashed=1;fontColor=#333333;" vertex="1" parent="1">
          <mxGeometry x="758.75" y="170" width="50" height="50" as="geometry" />
        </mxCell>
        <mxCell id="K98Bxn6t_sUbTKtrdi1Z-236" value="null" style="rounded=0;whiteSpace=wrap;html=1;fillColor=#f5f5f5;strokeColor=#666666;fontSize=18;fontStyle=1;dashed=1;fontColor=#333333;" vertex="1" parent="1">
          <mxGeometry x="848.75" y="170" width="50" height="50" as="geometry" />
        </mxCell>
        <mxCell id="K98Bxn6t_sUbTKtrdi1Z-237" style="edgeStyle=orthogonalEdgeStyle;rounded=0;orthogonalLoop=1;jettySize=auto;html=1;exitX=0;exitY=0.25;exitDx=0;exitDy=0;entryX=1;entryY=0.25;entryDx=0;entryDy=0;" edge="1" parent="1" source="K98Bxn6t_sUbTKtrdi1Z-238" target="K98Bxn6t_sUbTKtrdi1Z-239">
          <mxGeometry relative="1" as="geometry" />
        </mxCell>
        <mxCell id="K98Bxn6t_sUbTKtrdi1Z-240" style="edgeStyle=orthogonalEdgeStyle;rounded=0;orthogonalLoop=1;jettySize=auto;html=1;exitX=1;exitY=0.75;exitDx=0;exitDy=0;entryX=0;entryY=0.75;entryDx=0;entryDy=0;curved=1;" edge="1" parent="1" source="K98Bxn6t_sUbTKtrdi1Z-238" target="K98Bxn6t_sUbTKtrdi1Z-235">
          <mxGeometry relative="1" as="geometry" />
        </mxCell>
        <mxCell id="K98Bxn6t_sUbTKtrdi1Z-238" value="C" style="rounded=0;whiteSpace=wrap;html=1;fillColor=#f8cecc;strokeColor=#b85450;fontStyle=1;fontSize=18;" vertex="1" parent="1">
          <mxGeometry x="667.5" y="270" width="50" height="50" as="geometry" />
        </mxCell>
        <mxCell id="K98Bxn6t_sUbTKtrdi1Z-239" value="null" style="rounded=0;whiteSpace=wrap;html=1;fillColor=#f5f5f5;strokeColor=#666666;fontSize=18;fontStyle=1;dashed=1;fontColor=#333333;" vertex="1" parent="1">
          <mxGeometry x="574" y="270" width="50" height="50" as="geometry" />
        </mxCell>
        <mxCell id="K98Bxn6t_sUbTKtrdi1Z-251" style="edgeStyle=orthogonalEdgeStyle;rounded=0;orthogonalLoop=1;jettySize=auto;html=1;exitX=0.5;exitY=0;exitDx=0;exitDy=0;entryX=0.5;entryY=1;entryDx=0;entryDy=0;" edge="1" parent="1" source="K98Bxn6t_sUbTKtrdi1Z-242" target="K98Bxn6t_sUbTKtrdi1Z-249">
          <mxGeometry relative="1" as="geometry" />
        </mxCell>
        <mxCell id="K98Bxn6t_sUbTKtrdi1Z-242" value="&lt;b&gt;first&lt;/b&gt;" style="text;html=1;strokeColor=none;fillColor=none;align=center;verticalAlign=middle;whiteSpace=wrap;rounded=0;fontSize=21;" vertex="1" parent="1">
          <mxGeometry x="672.51" y="540" width="40" height="20" as="geometry" />
        </mxCell>
        <mxCell id="K98Bxn6t_sUbTKtrdi1Z-243" style="edgeStyle=orthogonalEdgeStyle;rounded=0;orthogonalLoop=1;jettySize=auto;html=1;exitX=0.5;exitY=0;exitDx=0;exitDy=0;entryX=0.5;entryY=1;entryDx=0;entryDy=0;" edge="1" parent="1" source="K98Bxn6t_sUbTKtrdi1Z-244">
          <mxGeometry relative="1" as="geometry">
            <mxPoint x="873.76" y="400" as="targetPoint" />
          </mxGeometry>
        </mxCell>
        <mxCell id="K98Bxn6t_sUbTKtrdi1Z-244" value="&lt;b&gt;last&lt;/b&gt;" style="text;html=1;strokeColor=none;fillColor=none;align=center;verticalAlign=middle;whiteSpace=wrap;rounded=0;fontSize=21;" vertex="1" parent="1">
          <mxGeometry x="853.76" y="430" width="40" height="20" as="geometry" />
        </mxCell>
        <mxCell id="K98Bxn6t_sUbTKtrdi1Z-245" value="null" style="rounded=0;whiteSpace=wrap;html=1;fillColor=#f5f5f5;strokeColor=#666666;fontSize=18;fontStyle=1;dashed=1;fontColor=#333333;" vertex="1" parent="1">
          <mxGeometry x="758.76" y="350" width="50" height="50" as="geometry" />
        </mxCell>
        <mxCell id="K98Bxn6t_sUbTKtrdi1Z-246" value="null" style="rounded=0;whiteSpace=wrap;html=1;fillColor=#f5f5f5;strokeColor=#666666;fontSize=18;fontStyle=1;dashed=1;fontColor=#333333;" vertex="1" parent="1">
          <mxGeometry x="848.76" y="350" width="50" height="50" as="geometry" />
        </mxCell>
        <mxCell id="K98Bxn6t_sUbTKtrdi1Z-247" style="edgeStyle=orthogonalEdgeStyle;rounded=0;orthogonalLoop=1;jettySize=auto;html=1;exitX=0;exitY=0.25;exitDx=0;exitDy=0;entryX=1;entryY=0.25;entryDx=0;entryDy=0;" edge="1" parent="1" source="K98Bxn6t_sUbTKtrdi1Z-249" target="K98Bxn6t_sUbTKtrdi1Z-250">
          <mxGeometry relative="1" as="geometry" />
        </mxCell>
        <mxCell id="K98Bxn6t_sUbTKtrdi1Z-248" style="edgeStyle=orthogonalEdgeStyle;rounded=0;orthogonalLoop=1;jettySize=auto;html=1;exitX=1;exitY=0.75;exitDx=0;exitDy=0;entryX=0;entryY=0.75;entryDx=0;entryDy=0;curved=1;" edge="1" parent="1" source="K98Bxn6t_sUbTKtrdi1Z-249" target="K98Bxn6t_sUbTKtrdi1Z-245">
          <mxGeometry relative="1" as="geometry" />
        </mxCell>
        <mxCell id="K98Bxn6t_sUbTKtrdi1Z-249" value="C" style="rounded=0;whiteSpace=wrap;html=1;fillColor=#f8cecc;strokeColor=#b85450;fontStyle=1;fontSize=18;" vertex="1" parent="1">
          <mxGeometry x="667.51" y="450" width="50" height="50" as="geometry" />
        </mxCell>
        <mxCell id="K98Bxn6t_sUbTKtrdi1Z-250" value="null" style="rounded=0;whiteSpace=wrap;html=1;fillColor=#f5f5f5;strokeColor=#666666;fontSize=18;fontStyle=1;dashed=1;fontColor=#333333;" vertex="1" parent="1">
          <mxGeometry x="574.01" y="450" width="50" height="50" as="geometry" />
        </mxCell>
        <mxCell id="K98Bxn6t_sUbTKtrdi1Z-252" style="edgeStyle=orthogonalEdgeStyle;rounded=0;orthogonalLoop=1;jettySize=auto;html=1;exitX=0.5;exitY=0;exitDx=0;exitDy=0;entryX=0.5;entryY=1;entryDx=0;entryDy=0;" edge="1" parent="1" source="K98Bxn6t_sUbTKtrdi1Z-253" target="K98Bxn6t_sUbTKtrdi1Z-260">
          <mxGeometry relative="1" as="geometry" />
        </mxCell>
        <mxCell id="K98Bxn6t_sUbTKtrdi1Z-253" value="&lt;b&gt;first&lt;/b&gt;" style="text;html=1;strokeColor=none;fillColor=none;align=center;verticalAlign=middle;whiteSpace=wrap;rounded=0;fontSize=21;" vertex="1" parent="1">
          <mxGeometry x="738.5" y="707" width="40" height="20" as="geometry" />
        </mxCell>
        <mxCell id="K98Bxn6t_sUbTKtrdi1Z-263" style="edgeStyle=orthogonalEdgeStyle;rounded=0;orthogonalLoop=1;jettySize=auto;html=1;exitX=0.5;exitY=1;exitDx=0;exitDy=0;entryX=0.5;entryY=0;entryDx=0;entryDy=0;" edge="1" parent="1" source="K98Bxn6t_sUbTKtrdi1Z-255" target="K98Bxn6t_sUbTKtrdi1Z-260">
          <mxGeometry relative="1" as="geometry" />
        </mxCell>
        <mxCell id="K98Bxn6t_sUbTKtrdi1Z-255" value="&lt;b&gt;last&lt;/b&gt;" style="text;html=1;strokeColor=none;fillColor=none;align=center;verticalAlign=middle;whiteSpace=wrap;rounded=0;fontSize=21;" vertex="1" parent="1">
          <mxGeometry x="738.5" y="577" width="40" height="20" as="geometry" />
        </mxCell>
        <mxCell id="K98Bxn6t_sUbTKtrdi1Z-257" value="null" style="rounded=0;whiteSpace=wrap;html=1;fillColor=#f5f5f5;strokeColor=#666666;fontSize=18;fontStyle=1;dashed=1;fontColor=#333333;" vertex="1" parent="1">
          <mxGeometry x="823.5" y="627" width="50" height="50" as="geometry" />
        </mxCell>
        <mxCell id="K98Bxn6t_sUbTKtrdi1Z-258" style="edgeStyle=orthogonalEdgeStyle;rounded=0;orthogonalLoop=1;jettySize=auto;html=1;exitX=0;exitY=0.25;exitDx=0;exitDy=0;entryX=1;entryY=0.25;entryDx=0;entryDy=0;" edge="1" parent="1" source="K98Bxn6t_sUbTKtrdi1Z-260" target="K98Bxn6t_sUbTKtrdi1Z-261">
          <mxGeometry relative="1" as="geometry" />
        </mxCell>
        <mxCell id="K98Bxn6t_sUbTKtrdi1Z-262" style="edgeStyle=orthogonalEdgeStyle;rounded=0;orthogonalLoop=1;jettySize=auto;html=1;exitX=1;exitY=0.75;exitDx=0;exitDy=0;entryX=0;entryY=0.75;entryDx=0;entryDy=0;" edge="1" parent="1" source="K98Bxn6t_sUbTKtrdi1Z-260" target="K98Bxn6t_sUbTKtrdi1Z-257">
          <mxGeometry relative="1" as="geometry" />
        </mxCell>
        <mxCell id="K98Bxn6t_sUbTKtrdi1Z-260" value="C" style="rounded=0;whiteSpace=wrap;html=1;fillColor=#f8cecc;strokeColor=#b85450;fontStyle=1;fontSize=18;" vertex="1" parent="1">
          <mxGeometry x="733.5" y="627" width="50" height="50" as="geometry" />
        </mxCell>
        <mxCell id="K98Bxn6t_sUbTKtrdi1Z-261" value="null" style="rounded=0;whiteSpace=wrap;html=1;fillColor=#f5f5f5;strokeColor=#666666;fontSize=18;fontStyle=1;dashed=1;fontColor=#333333;" vertex="1" parent="1">
          <mxGeometry x="640" y="627" width="50" height="50" as="geometry" />
        </mxCell>
        <mxCell id="K98Bxn6t_sUbTKtrdi1Z-264" value="创建新节点" style="text;html=1;strokeColor=none;fillColor=none;align=center;verticalAlign=middle;whiteSpace=wrap;rounded=0;fontStyle=1;fontSize=15;" vertex="1" parent="1">
          <mxGeometry x="-75" y="220" width="90" height="30" as="geometry" />
        </mxCell>
        <mxCell id="K98Bxn6t_sUbTKtrdi1Z-265" value="将头节点指向新节点" style="text;html=1;strokeColor=none;fillColor=none;align=center;verticalAlign=middle;whiteSpace=wrap;rounded=0;fontStyle=1;fontSize=15;" vertex="1" parent="1">
          <mxGeometry x="-100" y="440" width="140" height="30" as="geometry" />
        </mxCell>
        <mxCell id="K98Bxn6t_sUbTKtrdi1Z-266" value="" style="endArrow=none;html=1;rounded=0;strokeWidth=2;" edge="1" parent="1">
          <mxGeometry width="50" height="50" relative="1" as="geometry">
            <mxPoint x="-90" y="150" as="sourcePoint" />
            <mxPoint x="990" y="150" as="targetPoint" />
          </mxGeometry>
        </mxCell>
        <mxCell id="K98Bxn6t_sUbTKtrdi1Z-267" value="" style="endArrow=none;html=1;rounded=0;strokeWidth=2;" edge="1" parent="1">
          <mxGeometry width="50" height="50" relative="1" as="geometry">
            <mxPoint x="-90" y="330" as="sourcePoint" />
            <mxPoint x="990" y="330" as="targetPoint" />
          </mxGeometry>
        </mxCell>
        <mxCell id="K98Bxn6t_sUbTKtrdi1Z-268" value="" style="endArrow=none;html=1;rounded=0;strokeWidth=2;" edge="1" parent="1">
          <mxGeometry width="50" height="50" relative="1" as="geometry">
            <mxPoint x="-90" y="570" as="sourcePoint" />
            <mxPoint x="990" y="570" as="targetPoint" />
          </mxGeometry>
        </mxCell>
        <mxCell id="K98Bxn6t_sUbTKtrdi1Z-269" value="如果链表为空，将last指向新节点" style="text;html=1;strokeColor=none;fillColor=none;align=center;verticalAlign=middle;whiteSpace=wrap;rounded=0;fontStyle=1;fontSize=15;" vertex="1" parent="1">
          <mxGeometry x="546.38" y="702" width="140" height="30" as="geometry" />
        </mxCell>
        <mxCell id="K98Bxn6t_sUbTKtrdi1Z-270" value="如果链表不为空，将原头节点的前驱节点指向新节点" style="text;html=1;strokeColor=none;fillColor=none;align=center;verticalAlign=middle;whiteSpace=wrap;rounded=0;fontStyle=1;fontSize=15;" vertex="1" parent="1">
          <mxGeometry x="-100" y="637" width="140" height="30" as="geometry" />
        </mxCell>
        <mxCell id="K98Bxn6t_sUbTKtrdi1Z-274" value="" style="endArrow=none;dashed=1;html=1;rounded=0;" edge="1" parent="1">
          <mxGeometry width="50" height="50" relative="1" as="geometry">
            <mxPoint x="530" y="774.800048828125" as="sourcePoint" />
            <mxPoint x="530" y="-30" as="targetPoint" />
          </mxGeometry>
        </mxCell>
        <mxCell id="K98Bxn6t_sUbTKtrdi1Z-275" value="&lt;font style=&quot;font-size: 24px;&quot;&gt;非空链表&lt;/font&gt;" style="text;html=1;strokeColor=none;fillColor=none;align=center;verticalAlign=middle;whiteSpace=wrap;rounded=0;fontStyle=1;fontSize=15;" vertex="1" parent="1">
          <mxGeometry x="268.5" y="-30" width="118.87" height="30" as="geometry" />
        </mxCell>
        <mxCell id="K98Bxn6t_sUbTKtrdi1Z-276" value="&lt;font style=&quot;font-size: 24px;&quot;&gt;空链表&lt;/font&gt;" style="text;html=1;strokeColor=none;fillColor=none;align=center;verticalAlign=middle;whiteSpace=wrap;rounded=0;fontStyle=1;fontSize=15;" vertex="1" parent="1">
          <mxGeometry x="690" y="-30" width="118.87" height="30" as="geometry" />
        </mxCell>
      </root>
    </mxGraphModel>
  </diagram>
</mxfile>
